<svg width="571" height="253" viewBox="0 0 571 253" fill="none" xmlns="http://www.w3.org/2000/svg">
<g clip-path="url(#clip0_1306_340)">
<path d="M71.8183 196V51.6301H133.485C143.522 51.6301 151.978 53.2113 158.853 56.3737C165.727 59.3986 170.952 63.7297 174.527 69.367C178.239 74.8668 180.096 81.3978 180.096 88.9601C180.096 96.2473 178.514 102.366 175.352 107.316C172.19 112.265 167.996 116.047 162.771 118.659C157.684 121.271 152.047 122.853 145.859 123.403L149.159 120.928C155.897 121.203 161.809 122.99 166.896 126.29C171.983 129.59 175.971 133.921 178.858 139.283C181.883 144.508 183.396 150.283 183.396 156.608C183.396 164.445 181.539 171.32 177.827 177.232C174.115 183.144 168.684 187.75 161.534 191.05C154.384 194.35 145.722 196 135.547 196H71.8183ZM102.755 170.838H130.391C137.266 170.838 142.559 169.326 146.272 166.301C150.122 163.139 152.047 158.601 152.047 152.689C152.047 146.777 150.053 142.171 146.066 138.871C142.216 135.571 136.853 133.921 129.979 133.921H102.755V170.838ZM102.755 111.028H128.123C134.722 111.028 139.741 109.516 143.178 106.491C146.753 103.466 148.541 99.2034 148.541 93.7036C148.541 88.2038 146.753 83.9415 143.178 80.9166C139.741 77.7542 134.654 76.173 127.916 76.173H102.755V111.028ZM205.554 196V92.0537H236.49V196H205.554ZM221.022 80.0916C215.522 80.0916 211.054 78.5104 207.616 75.348C204.179 72.1857 202.46 68.1983 202.46 63.386C202.46 58.4362 204.179 54.38 207.616 51.2177C211.054 48.0553 215.522 46.4741 221.022 46.4741C226.659 46.4741 231.197 48.0553 234.634 51.2177C238.209 54.38 239.996 58.4362 239.996 63.386C239.996 68.1983 238.209 72.1857 234.634 75.348C231.197 78.5104 226.659 80.0916 221.022 80.0916ZM263.751 196V47.5053H294.688V196H263.751ZM321.556 196V47.5053H352.492V196H321.556ZM379.772 196V92.0537H410.709V196H379.772ZM395.241 80.0916C389.741 80.0916 385.272 78.5104 381.835 75.348C378.397 72.1857 376.679 68.1983 376.679 63.386C376.679 58.4362 378.397 54.38 381.835 51.2177C385.272 48.0553 389.741 46.4741 395.241 46.4741C400.878 46.4741 405.415 48.0553 408.853 51.2177C412.427 54.38 414.215 58.4362 414.215 63.386C414.215 68.1983 412.427 72.1857 408.853 75.348C405.415 78.5104 400.878 80.0916 395.241 80.0916ZM486.643 196C479.081 196 472.412 194.831 466.638 192.494C460.863 190.019 456.394 186.032 453.232 180.532C450.069 175.032 448.488 167.539 448.488 158.051V117.834H430.751V92.0537H448.488L451.788 62.7672H479.425V92.0537H506.03V117.834H479.425V158.464C479.425 162.589 480.318 165.545 482.106 167.332C484.031 168.982 487.262 169.807 491.799 169.807H506.03V196H486.643Z" fill="#303030"/>
<circle cx="396" cy="60" r="23" fill="#C8E941"/>
<circle cx="223" cy="60" r="23" fill="#C8E941"/>
</g>
<defs>
<clipPath id="clip0_1306_340">
<rect width="571" height="253" fill="white"/>
</clipPath>
</defs>
</svg>
