<svg width="138" height="81" viewBox="0 0 138 81" fill="none" xmlns="http://www.w3.org/2000/svg">
<path d="M92.8574 25.0978L94.7236 24.6741C94.7626 24.6653 94.8286 24.6506 94.9065 24.6255C95.422 24.4899 95.8637 24.1631 96.1386 23.7141C96.4134 23.2652 96.5 22.729 96.38 22.2186L96.3725 22.1862C96.3109 21.9417 96.2031 21.7106 96.0548 21.505C95.8458 21.2447 95.5871 21.0268 95.2933 20.8635C94.9473 20.67 94.5852 20.5056 94.211 20.3721L92.1648 19.638C91.0166 19.2187 89.8683 18.8111 88.7081 18.4124C87.9571 18.1505 87.32 17.9195 86.7668 17.7503C86.6616 17.7217 86.5571 17.6903 86.4536 17.6562C85.785 17.4561 85.3143 17.3722 84.9171 17.3693C84.6516 17.3596 84.3871 17.4068 84.1421 17.5076C83.8861 17.6164 83.6562 17.7768 83.4675 17.9784C83.3739 18.0827 83.2858 18.1917 83.2037 18.305C83.044 18.5458 82.9122 18.8034 82.8109 19.073C82.4308 20.175 82.2413 21.3317 82.2503 22.4952C82.2578 23.5456 82.2863 24.8948 82.8754 25.8099C83.0178 26.0453 83.2082 26.2483 83.4345 26.4058C83.8543 26.6897 84.277 26.728 84.7192 26.7589C85.3788 26.8045 86.0158 26.6471 86.6529 26.5014L92.8529 25.0963L92.8574 25.0978ZM113.679 15.3743C113.169 14.3247 112.484 13.3664 111.652 12.5391C111.544 12.4339 111.429 12.3366 111.307 12.2478C111.195 12.1648 111.077 12.0877 110.956 12.0168C110.832 11.9499 110.704 11.8895 110.573 11.8359C110.314 11.736 110.037 11.6909 109.759 11.7035C109.493 11.7182 109.234 11.7917 108.999 11.9138C108.644 12.0875 108.258 12.367 107.746 12.8334C107.675 12.9025 107.587 12.9805 107.506 13.0541C107.085 13.444 106.614 13.9251 106.055 14.4841C105.19 15.3419 104.34 16.204 103.493 17.0736L101.979 18.6154C101.702 18.8967 101.451 19.2003 101.226 19.5232C101.034 19.7964 100.898 20.1038 100.826 20.428C100.786 20.6771 100.792 20.9314 100.844 21.1784L100.852 21.2107C100.971 21.7206 101.288 22.165 101.735 22.4504C102.181 22.7358 102.724 22.8399 103.247 22.7409C103.31 22.7321 103.373 22.7204 103.434 22.7055L111.502 20.8753C112.139 20.7311 112.784 20.5987 113.355 20.2721C113.739 20.0558 114.103 19.8395 114.353 19.404C114.487 19.1642 114.567 18.8995 114.59 18.6272C114.715 17.5473 114.14 16.3217 113.679 15.3743ZM99.2357 18.7037C99.8203 17.9828 99.8203 16.9088 99.8713 16.029C100.048 13.0938 100.233 10.1586 100.381 7.22199C100.436 6.10972 100.558 5.01216 100.49 3.89106C100.435 2.96711 100.429 1.90486 99.8338 1.14569C98.7845 -0.193161 96.5449 -0.0828162 95.0174 0.126103C94.5462 0.189986 94.0785 0.276403 93.6159 0.385044C93.1512 0.493918 92.6895 0.61309 92.2398 0.755803C90.7737 1.22661 88.7126 2.09171 88.3648 3.74982C88.1669 4.68701 88.6346 5.6448 88.9944 6.50108C89.4336 7.53684 90.0317 8.4711 90.5773 9.44654C92.0209 12.0227 93.4899 14.5842 94.9545 17.1471C95.3937 17.9122 95.8689 18.8803 96.7158 19.2775C96.7728 19.301 96.8298 19.3216 96.8882 19.3408C97.2675 19.482 97.6827 19.5085 98.0769 19.4187L98.1474 19.404C98.5132 19.3055 98.8429 19.1098 99.1023 18.8405C99.1502 18.7964 99.1922 18.7523 99.2357 18.7037ZM98.5356 26.5617C98.3075 26.2467 97.9836 26.0106 97.6104 25.8872C97.2373 25.7638 96.8339 25.7594 96.458 25.8746C96.3696 25.9032 96.2834 25.9381 96.2002 25.9791C96.0713 26.0436 95.9485 26.1189 95.8329 26.2042C95.5029 26.4594 95.2081 26.7557 94.956 27.0855C94.8915 27.1664 94.8316 27.2738 94.7536 27.3444L93.4555 29.0952C92.7209 30.078 91.9939 31.0623 91.2759 32.0613C90.8052 32.7072 90.4005 33.253 90.0782 33.7341C90.0182 33.8253 89.9553 33.9254 89.8983 34.0078C89.513 34.5904 89.2957 35.0171 89.1833 35.3966C89.0993 35.6488 89.0727 35.916 89.1053 36.1794C89.1413 36.453 89.2357 36.7164 89.3811 36.9532C89.4591 37.0709 89.543 37.1857 89.633 37.296C89.8272 37.5155 90.046 37.7129 90.285 37.8845C91.1815 38.4966 92.1618 38.9365 93.1931 39.2764C94.0521 39.5559 94.944 39.7236 95.8464 39.7736C96.0008 39.781 96.1552 39.7781 96.3081 39.7648C96.4499 39.7518 96.5909 39.7322 96.7308 39.706C96.8708 39.674 97.0089 39.6347 97.1445 39.5883C97.4083 39.4913 97.6484 39.3409 97.8491 39.1469C98.0395 38.96 98.1864 38.7349 98.2778 38.4863C98.4277 38.1185 98.5266 37.6536 98.5926 36.9621C98.5971 36.8635 98.6121 36.7458 98.6226 36.6384C98.6735 36.0646 98.6975 35.3878 98.7335 34.5963C98.798 33.3766 98.8474 32.1628 98.8864 30.9461L98.9703 28.7804C98.9898 28.2831 98.9733 27.7299 98.8324 27.2341C98.7705 26.9959 98.6703 26.769 98.5356 26.5617ZM113.186 29.95C112.916 29.6573 112.532 29.3674 111.926 29.0084C111.839 28.9599 111.736 28.8966 111.642 28.8407C111.138 28.542 110.531 28.2301 109.822 27.852C108.732 27.2635 107.642 26.6927 106.54 26.1248L104.596 25.1125C104.496 25.0831 104.394 25.0125 104.298 24.9669C103.924 24.7794 103.527 24.6405 103.117 24.5534C102.975 24.5267 102.832 24.5119 102.688 24.5093C102.595 24.5088 102.502 24.5142 102.409 24.5255C102.02 24.5845 101.66 24.7626 101.38 25.0345C101.1 25.3064 100.914 25.6581 100.85 26.0394C100.822 26.2822 100.831 26.5279 100.879 26.7662C100.973 27.2753 101.204 27.777 101.444 28.2169L102.481 30.1281C103.06 31.205 103.644 32.2761 104.244 33.3442C104.631 34.0401 104.953 34.636 105.254 35.1303C105.311 35.223 105.376 35.3231 105.425 35.4099C105.792 36.0028 106.086 36.3765 106.384 36.6457C106.583 36.8333 106.822 36.9755 107.083 37.0619C107.344 37.1484 107.622 37.1771 107.895 37.146C108.038 37.1289 108.18 37.1044 108.32 37.0724C108.606 36.9971 108.884 36.89 109.146 36.7531C109.935 36.3191 110.662 35.7848 111.309 35.1642C112.085 34.4138 112.772 33.5958 113.305 32.6601C113.38 32.5277 113.443 32.3909 113.497 32.2481C113.548 32.1175 113.591 31.9844 113.628 31.8494C113.659 31.7111 113.683 31.5728 113.7 31.4331C113.727 31.1584 113.694 30.8812 113.605 30.6195C113.517 30.3683 113.374 30.1392 113.186 29.9486V29.95Z" fill="#FF1A1A"/>
<path fill-rule="evenodd" clip-rule="evenodd" d="M45.8884 12.1297C45.8884 10.5554 47.194 9.26953 48.771 9.26953C50.3254 9.26953 51.5876 10.5554 51.6551 12.1532V34.4781C51.6551 36.0524 50.3479 37.3383 48.771 37.3383C48.3898 37.3381 48.0125 37.2638 47.6608 37.1196C47.3091 36.9754 46.9899 36.7642 46.7219 36.4983C46.4538 36.2323 46.2422 35.9168 46.0991 35.5701C45.956 35.2233 45.8844 34.8522 45.8884 34.4781V12.1297ZM43.2066 25.9198C43.1841 26.3626 43.0717 27.1836 42.4871 27.7824C41.856 28.4254 41.0001 28.5798 40.5039 28.5798C38.4427 28.5916 36.3816 28.5975 34.3204 28.6019C32.2593 28.6078 30.1981 28.6137 28.137 28.624C28.3169 29.1786 28.6766 30.0217 29.4876 30.797C29.9823 31.2634 30.456 31.5282 30.6598 31.6401C30.9072 31.7945 31.7631 32.2389 32.8214 32.2389C33.9487 32.2389 34.9395 31.8828 35.9094 31.3958L35.9888 31.3546C36.6634 31.0118 37.3574 30.6587 38.0935 30.5307C38.813 30.4204 39.5805 30.5528 40.1426 31.0413C40.8187 31.618 41.09 32.4595 40.8412 33.3247C40.5489 34.3001 39.7154 35.1431 38.837 35.6522C38.3342 35.9409 37.8065 36.1856 37.26 36.3834C35.8658 36.869 34.3915 37.095 32.9129 37.0499C32.5531 37.0499 32.1693 37.0499 31.7856 37.0057C31.3809 36.9616 30.9761 36.8719 30.5924 36.7836C29.9703 36.6512 29.3653 36.4503 28.7891 36.1848C28.2126 35.9339 27.6619 35.6295 27.1446 35.2755C26.6287 34.9116 26.1466 34.5034 25.7041 34.0559C25.264 33.6028 24.8643 33.1135 24.5094 32.5934C23.2937 30.775 22.73 28.5357 22.8425 26.3626C22.9324 24.2352 23.6534 22.1063 24.9606 20.3776C25.1015 20.1598 25.2649 19.9759 25.4193 19.8023C25.4867 19.7258 25.5527 19.6522 25.6141 19.5787C27.2271 17.6425 29.3827 17.0304 30.2716 16.7774L30.3211 16.7627C32.1252 16.2599 34.0363 16.2599 35.8404 16.7627C36.2692 16.8745 38.6796 17.6057 40.5489 19.5787C40.6388 19.6669 40.8876 19.9553 41.2024 20.3776C42.002 21.4462 42.5893 22.6531 42.9338 23.9351L42.9368 23.9468C43.0717 24.4338 43.2066 25.1003 43.2066 25.9198ZM29.9838 22.2622C29.0943 22.9722 28.4753 23.9562 28.2269 25.0547H38.0485C37.7835 23.9571 37.1583 22.9755 36.2692 22.2608C35.3736 21.5559 34.2631 21.1658 33.1152 21.1529C31.9734 21.164 30.869 21.5546 29.9823 22.2608L29.9838 22.2622ZM67.3333 16.386C64.7655 16.386 62.4225 17.5174 60.7556 19.358V19.2903C60.7222 18.5512 60.3942 17.8545 59.8423 17.3505C59.2904 16.8465 58.5589 16.5755 57.8054 16.596C57.0518 16.6165 56.3367 16.9267 55.814 17.4599C55.2914 17.993 55.0031 18.7064 55.0114 19.4462V40.7516C55.0096 41.1241 55.0829 41.4934 55.2271 41.838C55.3714 42.1827 55.5836 42.4959 55.8517 42.7597C56.1198 43.0235 56.4383 43.2326 56.7891 43.3751C57.1399 43.5175 57.5159 43.5904 57.8955 43.5896C58.275 43.5902 58.6508 43.5172 59.0014 43.3746C59.352 43.2321 59.6704 43.0229 59.9383 42.7592C60.2062 42.4954 60.4183 42.1822 60.5625 41.8377C60.7066 41.4931 60.7799 41.124 60.7781 40.7516V34.1C62.445 35.9185 64.7655 37.072 67.3558 37.072C72.5154 37.072 76.7052 32.4816 76.7052 26.7614C76.6827 21.0426 72.4929 16.386 67.3333 16.386ZM66.0726 32.4375C63.1435 32.4375 60.7556 29.9319 60.7556 26.807C60.7556 23.6585 63.1211 21.1529 66.0726 21.1529C69.0002 21.1529 71.3881 23.6585 71.3881 26.807C71.3657 29.9319 69.0002 32.4375 66.0726 32.4375ZM18.5178 28.2473L17.5719 30.288C17.1432 31.1737 16.7145 32.0829 16.3097 32.9921L15.9185 33.8455C14.1167 37.7767 11.9806 42.4435 7.32163 43.4337C5.06861 43.9221 1.66734 43.2571 0.405164 41.1724C-0.855509 39.067 1.01377 36.6497 3.42419 37.2044C3.80494 37.2868 4.17819 37.4692 4.55594 37.6546C5.18403 37.9635 5.82111 38.274 6.51066 38.1357C7.16423 38.0253 7.56897 37.5589 8.08763 36.9601C8.80716 36.1406 9.12345 35.2755 9.25836 34.765L9.22538 34.6885C9.21494 34.6621 9.20344 34.6361 9.19091 34.6105C8.60479 33.5365 8.09213 32.5773 7.66491 31.7754C7.42473 31.3226 7.18238 30.8709 6.93788 30.4204L5.95603 28.5901C5.2365 27.2513 5.11658 27.0306 4.79878 26.4524C4.09819 25.1545 3.3619 23.8755 2.59073 22.6168C1.75728 21.2412 0.901339 19.7125 1.59988 18.0927C1.86244 17.4655 2.35547 16.958 2.98126 16.6708C3.60706 16.3836 4.31995 16.3376 4.97867 16.542C6.42822 16.9731 7.0713 18.3281 7.6709 19.5934C7.78033 19.8229 7.88676 20.0495 7.99769 20.2657C8.96605 22.1504 9.91193 24.0351 10.8578 25.9198C10.9418 26.1066 11.0677 26.3612 11.2236 26.6731C11.3615 26.9497 11.5219 27.2719 11.6913 27.6265L11.9416 28.1385C12.039 28.3385 12.1245 28.5092 12.1874 28.646C12.6267 27.572 13.0719 26.5024 13.5156 25.4313C13.9608 24.3617 14.406 23.2921 14.8452 22.2166C14.8572 22.1578 14.9621 21.9283 15.121 21.5825C15.2544 21.2897 15.4253 20.9146 15.6112 20.4879L15.8016 20.0362C16.3862 18.6385 17.0907 16.9569 18.6527 16.4978C19.2071 16.3399 19.7979 16.3554 20.3429 16.542C20.888 16.7287 21.3603 17.0773 21.6942 17.5395C22.0315 18.0044 22.1664 18.537 22.1889 19.0696C22.2069 20.2466 21.6283 21.509 21.1306 22.5918C21.0107 22.8566 20.8937 23.1097 20.7933 23.348L20.7333 23.4775C20.5954 23.7821 20.2207 24.606 19.5761 25.9639C19.3438 26.4494 19.1204 26.9379 18.894 27.4308L18.5178 28.2473Z" fill="black"/>
<path d="M76.4505 61.2557H66.3949L65.2945 63.9498C65.1554 64.2787 64.9657 64.5569 64.7253 64.7846C64.485 64.9996 64.2131 65.1641 63.9095 65.2779C63.6186 65.3791 63.3024 65.4297 62.9609 65.4297C62.6194 65.417 62.2905 65.3411 61.9743 65.202C61.6454 65.0629 61.3735 64.8795 61.1585 64.6518C60.9434 64.4115 60.7853 64.1459 60.6841 63.8549C60.5956 63.564 60.5576 63.2605 60.5703 62.9442C60.5956 62.6154 60.6778 62.2865 60.8169 61.9577L69.146 42.6433C69.361 42.1627 69.6583 41.7959 70.0377 41.5429C70.4298 41.2773 70.8852 41.1445 71.4038 41.1445C71.8844 41.1445 72.3208 41.2773 72.7129 41.5429C73.1176 41.7959 73.4212 42.1564 73.6236 42.6244L82.0096 61.9577C82.1487 62.2739 82.2246 62.5964 82.2372 62.9253C82.2625 63.2415 82.2309 63.5451 82.1424 63.836C82.0538 64.1269 81.9021 64.3925 81.687 64.6328C81.4847 64.8732 81.2254 65.0629 80.9091 65.202C80.5929 65.3411 80.2704 65.417 79.9415 65.4297C79.6127 65.4297 79.2965 65.3728 78.9929 65.2589C78.6893 65.1451 78.4174 64.9807 78.1771 64.7656C77.9367 64.538 77.7407 64.266 77.5889 63.9498L76.4505 61.2557ZM68.3871 56.3227H74.4204L71.4227 49.0372L68.3871 56.3227ZM85.1318 43.4971C85.1318 43.1556 85.195 42.8331 85.3215 42.5295C85.4606 42.2133 85.644 41.9413 85.8717 41.7137C86.0994 41.486 86.365 41.3089 86.6686 41.1824C86.9721 41.0433 87.301 40.9737 87.6552 40.9737C88.0093 40.9737 88.3319 41.0433 88.6228 41.1824C88.9263 41.3089 89.1793 41.486 89.3817 41.7137C89.5967 41.9413 89.7611 42.2133 89.875 42.5295C90.0015 42.8331 90.0647 43.1556 90.0647 43.4971V48.5629C90.6845 48.2466 91.3359 48 92.0189 47.8229C92.7146 47.6458 93.4355 47.5573 94.1818 47.5573C95.434 47.5573 96.604 47.7976 97.6918 48.2783C98.7922 48.7463 99.7472 49.3913 100.557 50.2135C101.379 51.0356 102.024 51.9969 102.492 53.0974C102.973 54.1851 103.213 55.3551 103.213 56.6073C103.213 57.8469 102.973 59.0169 102.492 60.1173C102.024 61.2177 101.379 62.179 100.557 63.0012C99.7472 63.8233 98.7922 64.4747 97.6918 64.9554C96.604 65.4234 95.434 65.6574 94.1818 65.6574C93.1952 65.6574 92.2592 65.5119 91.3738 65.221C90.4884 64.9174 89.6663 64.4937 88.9074 63.9498L88.8505 64.1016C88.8125 64.1901 88.7556 64.3103 88.6797 64.4621C88.6038 64.6012 88.49 64.7467 88.3382 64.8984C88.1991 65.0376 88.022 65.1641 87.8069 65.2779C87.6046 65.3791 87.3516 65.4297 87.048 65.4297C86.3397 65.4297 85.8401 65.2083 85.5492 64.7656C85.2709 64.3103 85.1318 63.7285 85.1318 63.0201V43.4971ZM94.1818 52.4902C93.6506 52.4902 93.1446 52.5851 92.664 52.7748C92.196 52.9646 91.7786 53.2302 91.4118 53.5717C91.045 53.9005 90.7414 54.2926 90.5011 54.748C90.2734 55.2033 90.1343 55.6966 90.0837 56.2279V57.0247C90.1343 57.5433 90.2734 58.0303 90.5011 58.4856C90.7414 58.9283 91.045 59.3204 91.4118 59.662C91.7912 59.9908 92.215 60.2501 92.683 60.4398C93.151 60.6296 93.6506 60.7244 94.1818 60.7244C94.751 60.7244 95.2822 60.6169 95.7755 60.4019C96.2815 60.1869 96.7178 59.896 97.0847 59.5291C97.4515 59.1497 97.7424 58.7133 97.9574 58.22C98.1724 57.7141 98.2799 57.1765 98.2799 56.6073C98.2799 56.0381 98.1724 55.5069 97.9574 55.0136C97.7424 54.5077 97.4515 54.0713 97.0847 53.7045C96.7178 53.325 96.2815 53.0278 95.7755 52.8128C95.2822 52.5977 94.751 52.4902 94.1818 52.4902ZM113.057 62.9822C113.057 63.3237 112.994 63.6462 112.868 63.9498C112.741 64.2407 112.564 64.5 112.336 64.7277C112.121 64.9427 111.862 65.1135 111.559 65.24C111.268 65.3664 110.951 65.4297 110.61 65.4297C110.268 65.4297 109.946 65.3664 109.642 65.24C109.351 65.1135 109.092 64.9427 108.864 64.7277C108.637 64.5 108.453 64.2407 108.314 63.9498C108.188 63.6462 108.124 63.3237 108.124 62.9822V43.4212C108.124 43.0797 108.188 42.7635 108.314 42.4726C108.453 42.169 108.637 41.9097 108.864 41.6947C109.092 41.467 109.358 41.2899 109.661 41.1635C109.977 41.037 110.306 40.9737 110.648 40.9737C110.989 40.9737 111.306 41.037 111.596 41.1635C111.887 41.2899 112.14 41.467 112.355 41.6947C112.583 41.9097 112.754 42.169 112.868 42.4726C112.994 42.7635 113.057 43.0797 113.057 43.4212V62.9822ZM122.915 58.8082C123.307 59.4533 123.813 59.9402 124.432 60.2691C125.065 60.5853 125.761 60.7434 126.519 60.7434C127.025 60.7434 127.455 60.7055 127.81 60.6296C128.176 60.541 128.499 60.4019 128.777 60.2122C129.233 59.896 129.663 59.7062 130.067 59.643C130.485 59.5797 130.877 59.6177 131.244 59.7568C131.497 59.858 131.724 60.0035 131.927 60.1932C132.142 60.3703 132.319 60.579 132.458 60.8193C132.597 61.0596 132.698 61.3252 132.762 61.6162C132.825 61.8944 132.837 62.179 132.799 62.4699C132.762 62.7482 132.667 63.0265 132.515 63.3047C132.363 63.5704 132.148 63.817 131.87 64.0447C131.629 64.2344 131.345 64.4305 131.016 64.6328C130.7 64.8226 130.327 64.9933 129.897 65.1451C129.479 65.2969 128.992 65.417 128.436 65.5056C127.879 65.6068 127.24 65.6574 126.519 65.6574C125.267 65.6574 124.091 65.4234 122.991 64.9554C121.89 64.4747 120.923 63.8233 120.088 63.0012C119.266 62.179 118.614 61.224 118.133 60.1363C117.653 59.0359 117.413 57.8595 117.413 56.6073C117.413 55.3551 117.653 54.1788 118.133 53.0784C118.614 51.978 119.266 51.023 120.088 50.2135C120.923 49.3913 121.89 48.7463 122.991 48.2783C124.091 47.7976 125.267 47.5573 126.519 47.5573C127.746 47.5573 128.91 47.7913 130.01 48.2593C131.111 48.7146 132.072 49.3471 132.894 50.1566C133.717 50.9661 134.368 51.9147 134.849 53.0025C135.342 54.0776 135.601 55.235 135.626 56.4745C135.626 57.1702 135.399 57.7331 134.943 58.1631C134.501 58.5932 133.919 58.8082 133.198 58.8082H122.915ZM130.561 54.7101C130.219 53.9511 129.701 53.3946 129.005 53.0404C128.322 52.6736 127.525 52.4902 126.614 52.4902C125.704 52.4902 124.913 52.6863 124.243 53.0784C123.585 53.4578 123.092 54.0017 122.763 54.7101H130.561Z" fill="black"/>
</svg>
