<svg width="200" height="21" viewBox="0 0 200 21" fill="none" xmlns="http://www.w3.org/2000/svg">
<path d="M0.894531 13.3877H3.45215C3.5752 14.4336 4.66504 15.1191 6.07129 15.1191C7.48633 15.1191 8.45312 14.4424 8.45312 13.5107C8.45312 12.6846 7.84668 12.2275 6.31738 11.8848L4.66504 11.5244C2.32715 11.0234 1.17578 9.83691 1.17578 7.98242C1.17578 5.64453 3.19727 4.09766 6.02734 4.09766C8.98047 4.09766 10.835 5.61816 10.8789 7.91211H8.3916C8.30371 6.83984 7.36328 6.18945 6.03613 6.18945C4.72656 6.18945 3.84766 6.81348 3.84766 7.75391C3.84766 8.53613 4.46289 8.97559 5.92188 9.30957L7.45996 9.63477C10 10.1797 11.1074 11.2695 11.1074 13.2031C11.1074 15.6641 9.1123 17.2197 5.96582 17.2197C2.91602 17.2197 0.973633 15.7695 0.894531 13.3877ZM21.2236 7.57812V17H18.7451V15.3037H18.6924C18.2266 16.4902 17.2949 17.1758 15.8711 17.1758C13.832 17.1758 12.4785 15.8486 12.4785 13.6514V7.57812H15.0449V13.1152C15.0449 14.3721 15.6689 15.04 16.8027 15.04C17.9453 15.04 18.6572 14.2227 18.6572 12.9746V7.57812H21.2236ZM28.3955 7.42871C30.7861 7.42871 32.2539 9.24805 32.2539 12.2891C32.2539 15.3213 30.7949 17.1494 28.4395 17.1494C27.0684 17.1494 26.0137 16.4814 25.5127 15.418H25.46V20.0762H22.8936V7.57812H25.4248V9.22168H25.4775C25.9873 8.11426 27.0332 7.42871 28.3955 7.42871ZM27.5342 15.084C28.8174 15.084 29.626 14.0029 29.626 12.2891C29.626 10.584 28.8174 9.48535 27.5342 9.48535C26.2773 9.48535 25.4512 10.6016 25.4512 12.2891C25.4512 13.9941 26.2773 15.084 27.5342 15.084ZM37.8086 9.27441C36.6836 9.27441 35.875 10.127 35.7871 11.3047H39.7861C39.7334 10.1006 38.9512 9.27441 37.8086 9.27441ZM39.8213 14.1172H42.1768C41.8955 15.9629 40.208 17.2021 37.8789 17.2021C34.9785 17.2021 33.2383 15.3477 33.2383 12.333C33.2383 9.32715 34.9961 7.37598 37.7822 7.37598C40.5244 7.37598 42.2559 9.23047 42.2559 12.0957V12.8779H35.7607V13.0361C35.7607 14.3809 36.6133 15.3037 37.9229 15.3037C38.8633 15.3037 39.584 14.8379 39.8213 14.1172ZM43.583 17V7.57812H46.0615V9.27441H46.1143C46.4482 8.0791 47.248 7.42871 48.3555 7.42871C48.6543 7.42871 48.9092 7.47266 49.085 7.52539V9.78418C48.874 9.69629 48.5225 9.63477 48.1533 9.63477C46.8877 9.63477 46.1494 10.4082 46.1494 11.7354V17H43.583ZM58.3838 11.085H56.002C55.8525 10.0918 55.1934 9.38867 54.1387 9.38867C52.873 9.38867 52.082 10.4609 52.082 12.2803C52.082 14.1348 52.873 15.1895 54.1475 15.1895C55.1758 15.1895 55.8438 14.5742 56.002 13.5459H58.3926C58.2607 15.7695 56.5996 17.2021 54.1211 17.2021C51.2822 17.2021 49.4805 15.3564 49.4805 12.2803C49.4805 9.25684 51.2822 7.37598 54.1035 7.37598C56.6523 7.37598 58.2695 8.94922 58.3838 11.085ZM59.6934 17V4.31738H62.2158V9.25684H62.2686C62.7695 8.07031 63.7979 7.40234 65.2305 7.40234C67.3223 7.40234 68.5176 8.75586 68.5176 10.9355V17H65.9512V11.4805C65.9512 10.2676 65.3535 9.5293 64.1846 9.5293C62.9717 9.5293 62.2598 10.3818 62.2598 11.6211V17H59.6934ZM73.7998 15.2949C74.916 15.2949 75.8389 14.5654 75.8389 13.5459V12.8604L73.8525 12.9834C72.8945 13.0537 72.3496 13.4844 72.3496 14.1523C72.3496 14.8555 72.9297 15.2949 73.7998 15.2949ZM72.9561 17.1494C71.1631 17.1494 69.8008 15.9893 69.8008 14.293C69.8008 12.5791 71.1191 11.5859 73.4658 11.4453L75.8389 11.3047V10.6807C75.8389 9.80176 75.2236 9.29199 74.2568 9.29199C73.2988 9.29199 72.6924 9.7666 72.5693 10.4609H70.2227C70.3193 8.63281 71.875 7.37598 74.3711 7.37598C76.7881 7.37598 78.3613 8.62402 78.3613 10.5225V17H75.8828V15.5586H75.8301C75.3027 16.5605 74.1338 17.1494 72.9561 17.1494ZM80.0225 17V7.57812H82.501V9.27441H82.5537C82.8877 8.0791 83.6875 7.42871 84.7949 7.42871C85.0938 7.42871 85.3486 7.47266 85.5244 7.52539V9.78418C85.3135 9.69629 84.9619 9.63477 84.5928 9.63477C83.3271 9.63477 82.5889 10.4082 82.5889 11.7354V17H80.0225ZM90.6133 14.9961C91.8965 14.9961 92.7139 13.9766 92.7139 12.2715C92.7139 10.5752 91.8965 9.48535 90.6133 9.48535C89.3477 9.48535 88.5479 10.5576 88.5479 12.2715C88.5479 13.9941 89.3389 14.9961 90.6133 14.9961ZM90.5693 20.5508C88.0908 20.5508 86.4121 19.3467 86.21 17.668H88.7236C88.9258 18.3184 89.6641 18.7666 90.6396 18.7666C91.9668 18.7666 92.7051 18.0283 92.7051 16.9385V15.2861H92.6523C92.2129 16.2881 91.1055 16.9736 89.7432 16.9736C87.4404 16.9736 85.9199 15.1982 85.9199 12.2539C85.9199 9.26562 87.3965 7.42871 89.7871 7.42871C91.1406 7.42871 92.2041 8.14062 92.6963 9.22168H92.7402V7.57812H95.2715V16.8682C95.2715 19.1182 93.3906 20.5508 90.5693 20.5508ZM101.178 9.27441C100.053 9.27441 99.2441 10.127 99.1562 11.3047H103.155C103.103 10.1006 102.32 9.27441 101.178 9.27441ZM103.19 14.1172H105.546C105.265 15.9629 103.577 17.2021 101.248 17.2021C98.3477 17.2021 96.6074 15.3477 96.6074 12.333C96.6074 9.32715 98.3652 7.37598 101.151 7.37598C103.894 7.37598 105.625 9.23047 105.625 12.0957V12.8779H99.1299V13.0361C99.1299 14.3809 99.9824 15.3037 101.292 15.3037C102.232 15.3037 102.953 14.8379 103.19 14.1172ZM110.45 17.1494C108.095 17.1494 106.609 15.2861 106.609 12.2715C106.609 9.2832 108.104 7.42871 110.468 7.42871C111.83 7.42871 112.885 8.14941 113.342 9.19531H113.395V4.31738H115.961V17H113.43V15.3828H113.386C112.929 16.4199 111.839 17.1494 110.45 17.1494ZM111.32 9.48535C110.028 9.48535 109.237 10.5664 109.237 12.2891C109.237 14.0205 110.028 15.084 111.32 15.084C112.595 15.084 113.412 14.0117 113.412 12.2891C113.412 10.5752 112.595 9.48535 111.32 9.48535ZM126.842 17.1494C125.462 17.1494 124.407 16.4814 123.889 15.3828H123.836V17H121.305V4.31738H123.871V9.21289H123.924C124.442 8.09668 125.488 7.42871 126.833 7.42871C129.206 7.42871 130.665 9.24805 130.665 12.2891C130.665 15.3213 129.215 17.1494 126.842 17.1494ZM125.954 9.48535C124.715 9.48535 123.862 10.6016 123.862 12.2891C123.862 13.9941 124.706 15.084 125.954 15.084C127.237 15.084 128.037 14.0117 128.037 12.2891C128.037 10.5752 127.229 9.48535 125.954 9.48535ZM132.977 20.4893C132.889 20.4893 132.089 20.4805 132.01 20.4629V18.4854C132.089 18.5029 132.555 18.5029 132.651 18.5029C133.592 18.5029 134.058 18.2041 134.233 17.457C134.233 17.4219 134.33 17.0439 134.312 17.0088L131.034 7.57812H133.855L135.859 14.9434H135.903L137.907 7.57812H140.614L137.371 17.2109C136.562 19.6279 135.385 20.4893 132.977 20.4893ZM151.592 17H148.938V12.2627L144.525 4.31738H147.417L150.256 9.73145H150.317L153.165 4.31738H156.013L151.592 12.2627V17ZM159.379 9.27441C158.254 9.27441 157.445 10.127 157.357 11.3047H161.356C161.304 10.1006 160.521 9.27441 159.379 9.27441ZM161.392 14.1172H163.747C163.466 15.9629 161.778 17.2021 159.449 17.2021C156.549 17.2021 154.809 15.3477 154.809 12.333C154.809 9.32715 156.566 7.37598 159.353 7.37598C162.095 7.37598 163.826 9.23047 163.826 12.0957V12.8779H157.331V13.0361C157.331 14.3809 158.184 15.3037 159.493 15.3037C160.434 15.3037 161.154 14.8379 161.392 14.1172ZM165.215 17V4.31738H167.781V17H165.215ZM175.015 7.42871C177.405 7.42871 178.873 9.24805 178.873 12.2891C178.873 15.3213 177.414 17.1494 175.059 17.1494C173.688 17.1494 172.633 16.4814 172.132 15.418H172.079V20.0762H169.513V7.57812H172.044V9.22168H172.097C172.606 8.11426 173.652 7.42871 175.015 7.42871ZM174.153 15.084C175.437 15.084 176.245 14.0029 176.245 12.2891C176.245 10.584 175.437 9.48535 174.153 9.48535C172.896 9.48535 172.07 10.6016 172.07 12.2891C172.07 13.9941 172.896 15.084 174.153 15.084ZM192.294 17L191.327 13.9238H186.871L185.904 17H183.18L187.583 4.31738H190.703L195.115 17H192.294ZM189.068 6.74316L187.442 11.9375H190.756L189.13 6.74316H189.068ZM196.24 17V7.57812H198.807V17H196.24ZM197.523 6.54102C196.75 6.54102 196.152 5.95215 196.152 5.21387C196.152 4.4668 196.75 3.88672 197.523 3.88672C198.297 3.88672 198.895 4.4668 198.895 5.21387C198.895 5.95215 198.297 6.54102 197.523 6.54102Z" fill="black"/>
</svg>
