<svg width="103" height="60" viewBox="0 0 103 60" fill="none" xmlns="http://www.w3.org/2000/svg">
<path d="M69.3606 18.7466L70.7546 18.4301C70.7837 18.4235 70.8329 18.4125 70.8912 18.3938C71.2762 18.2925 71.6061 18.0484 71.8114 17.713C72.0167 17.3777 72.0814 16.9772 71.9918 16.5959L71.9862 16.5718C71.9401 16.3891 71.8596 16.2165 71.7488 16.0629C71.5927 15.8685 71.3995 15.7057 71.18 15.5838C70.9216 15.4393 70.6512 15.3165 70.3716 15.2168L68.8433 14.6684C67.9856 14.3552 67.1279 14.0508 66.2613 13.753C65.7003 13.5574 65.2245 13.3848 64.8113 13.2584C64.7327 13.2371 64.6546 13.2136 64.5773 13.1881C64.0779 13.0386 63.7263 12.976 63.4296 12.9738C63.2313 12.9666 63.0338 13.0018 62.8508 13.0771C62.6595 13.1584 62.4879 13.2782 62.3469 13.4288C62.277 13.5067 62.2112 13.5881 62.1498 13.6727C62.0306 13.8526 61.9322 14.045 61.8565 14.2464C61.5725 15.0695 61.431 15.9335 61.4377 16.8025C61.4433 17.5872 61.4646 18.5949 61.9046 19.2784C62.011 19.4543 62.1532 19.6059 62.3223 19.7235C62.6358 19.9356 62.9515 19.9642 63.2818 19.9873C63.7745 20.0213 64.2504 19.9038 64.7262 19.795L69.3572 18.7455L69.3606 18.7466ZM84.9129 11.4836C84.5323 10.6997 84.0206 9.98391 83.3991 9.36598C83.3187 9.28739 83.2327 9.21467 83.1415 9.14839C83.0573 9.08641 82.9699 9.02882 82.8795 8.97585C82.7865 8.92583 82.6908 8.88071 82.5929 8.84068C82.3996 8.76609 82.1924 8.73238 81.9849 8.74178C81.7867 8.75277 81.593 8.80772 81.4172 8.89893C81.1519 9.0286 80.8641 9.2374 80.4812 9.58577C80.4286 9.63742 80.3625 9.69566 80.302 9.75061C79.9874 10.0418 79.6358 10.4012 79.2182 10.8188C78.5721 11.4595 77.9373 12.1034 77.3047 12.7529L76.1738 13.9046C75.9673 14.1147 75.7792 14.3415 75.6117 14.5827C75.4683 14.7867 75.3667 15.0163 75.3128 15.2585C75.2825 15.4446 75.287 15.6345 75.3262 15.819L75.3318 15.8432C75.4212 16.224 75.6576 16.556 75.9913 16.7691C76.3251 16.9823 76.73 17.0601 77.121 16.9861C77.1681 16.9795 77.2148 16.9707 77.261 16.9597L83.2871 15.5926C83.7629 15.4849 84.2444 15.386 84.671 15.142C84.9576 14.9805 85.2297 14.8189 85.4167 14.4937C85.5163 14.3145 85.5766 14.1168 85.5936 13.9134C85.6865 13.1068 85.2577 12.1914 84.9129 11.4836ZM74.1248 13.9706C74.5615 13.4321 74.5614 12.6298 74.5995 11.9727C74.7316 9.78028 74.8694 7.58789 74.9802 5.3944C75.0216 4.56359 75.1123 3.74378 75.0619 2.90639C75.0205 2.21625 75.016 1.42281 74.5715 0.855759C73.7878 -0.14428 72.115 -0.0618587 70.974 0.0941913C70.622 0.141908 70.2727 0.206456 69.9271 0.287605C69.58 0.368927 69.2352 0.457942 68.8993 0.564539C67.8042 0.916201 66.2647 1.56238 66.0049 2.80089C65.8571 3.50092 66.2064 4.21633 66.4752 4.85591C66.8032 5.62957 67.25 6.3274 67.6575 7.056C68.7358 8.98025 69.8331 10.8935 70.927 12.8079C71.255 13.3793 71.61 14.1024 72.2426 14.3991C72.2852 14.4167 72.3277 14.4321 72.3714 14.4464C72.6546 14.5519 72.9648 14.5717 73.2593 14.5046L73.3119 14.4937C73.5851 14.42 73.8314 14.2739 74.0251 14.0728C74.061 14.0398 74.0923 14.0068 74.1248 13.9706ZM73.6019 19.84C73.4315 19.6047 73.1896 19.4284 72.9108 19.3362C72.6321 19.244 72.3308 19.2407 72.05 19.3268C71.984 19.3482 71.9196 19.3742 71.8574 19.4048C71.7612 19.453 71.6694 19.5092 71.5831 19.573C71.3366 19.7636 71.1164 19.9849 70.9281 20.2312C70.88 20.2917 70.8352 20.3719 70.7769 20.4246L69.8073 21.7324C69.2587 22.4665 68.7156 23.2017 68.1793 23.9479C67.8277 24.4303 67.5254 24.838 67.2847 25.1974C67.2399 25.2655 67.1929 25.3402 67.1503 25.4018C66.8626 25.8369 66.7002 26.1556 66.6162 26.4392C66.5535 26.6275 66.5336 26.8271 66.558 27.0238C66.5849 27.2282 66.6554 27.4249 66.764 27.6019C66.8223 27.6898 66.885 27.7755 66.9521 27.8579C67.0972 28.0218 67.2606 28.1693 67.4392 28.2975C68.1088 28.7546 68.841 29.0832 69.6114 29.3371C70.2529 29.5459 70.9191 29.6712 71.5932 29.7085C71.7085 29.714 71.8238 29.7118 71.938 29.7019C72.044 29.6922 72.1493 29.6775 72.2538 29.658C72.3583 29.6341 72.4615 29.6047 72.5628 29.5701C72.7599 29.4976 72.9392 29.3853 73.0891 29.2404C73.2313 29.1008 73.341 28.9327 73.4093 28.7469C73.5213 28.4722 73.5952 28.1249 73.6444 27.6084C73.6478 27.5348 73.659 27.4469 73.6668 27.3667C73.7049 26.9381 73.7228 26.4326 73.7497 25.8413C73.7978 24.9303 73.8348 24.0237 73.8639 23.1149L73.9266 21.4972C73.9412 21.1258 73.9288 20.7126 73.8236 20.3422C73.7773 20.1643 73.7025 19.9948 73.6019 19.84ZM84.5445 22.3709C84.3429 22.1522 84.0563 21.9357 83.604 21.6676C83.539 21.6313 83.4618 21.584 83.3912 21.5423C83.015 21.3192 82.5615 21.0862 82.0319 20.8038C81.2179 20.3642 80.4039 19.9378 79.581 19.5136L78.1287 18.7576C78.0537 18.7356 77.9776 18.6828 77.9059 18.6488C77.6267 18.5088 77.3301 18.405 77.0236 18.34C76.918 18.3199 76.8109 18.3089 76.7034 18.307C76.6338 18.3066 76.5642 18.3107 76.4951 18.3191C76.2044 18.3631 75.9353 18.4962 75.7262 18.6993C75.5171 18.9023 75.3786 19.165 75.3307 19.4499C75.3094 19.6312 75.3161 19.8147 75.3519 19.9928C75.4225 20.373 75.5949 20.7477 75.7741 21.0763L76.5489 22.5039C76.9811 23.3083 77.4177 24.1083 77.8656 24.9061C78.1545 25.4259 78.3952 25.871 78.6203 26.2403C78.6628 26.3095 78.711 26.3842 78.7479 26.4491C79.0222 26.8919 79.2417 27.1711 79.4645 27.3722C79.6129 27.5123 79.7911 27.6184 79.9862 27.683C80.1813 27.7476 80.3886 27.7691 80.5931 27.7458C80.6997 27.7331 80.8055 27.7147 80.91 27.6909C81.1242 27.6346 81.3312 27.5546 81.527 27.4524C82.1163 27.1282 82.6596 26.7291 83.1427 26.2655C83.7226 25.7051 84.2355 25.0941 84.6341 24.3951C84.69 24.2962 84.7371 24.194 84.7774 24.0874C84.8149 23.9898 84.8474 23.8904 84.8748 23.7896C84.8983 23.6863 84.9162 23.583 84.9285 23.4786C84.9486 23.2734 84.9246 23.0664 84.858 22.8709C84.7923 22.6833 84.6852 22.5122 84.5445 22.3698V22.3709Z" fill="#FF1A1A"/>
<path fill-rule="evenodd" clip-rule="evenodd" d="M34.2758 9.05822C34.2758 7.88235 35.2511 6.92188 36.429 6.92188C37.5901 6.92188 38.5329 7.88235 38.5832 9.0758V25.7512C38.5832 26.927 37.6069 27.8875 36.429 27.8875C36.1443 27.8874 35.8624 27.8319 35.5997 27.7242C35.337 27.6165 35.0987 27.4588 34.8984 27.2601C34.6982 27.0614 34.5401 26.8258 34.4333 26.5668C34.3264 26.3078 34.2729 26.0306 34.2758 25.7512V9.05822ZM32.2727 19.3586C32.2559 19.6894 32.172 20.3026 31.7353 20.7499C31.2639 21.2301 30.6246 21.3455 30.254 21.3455C28.7144 21.3543 27.1749 21.3587 25.6353 21.362C24.0958 21.3664 22.5562 21.3708 21.0166 21.3785C21.151 21.7928 21.4197 22.4225 22.0255 23.0016C22.395 23.35 22.7488 23.5478 22.9011 23.6313C23.0858 23.7467 23.7251 24.0786 24.5156 24.0786C25.3576 24.0786 26.0977 23.8126 26.8222 23.4489L26.8815 23.4181C27.3854 23.1621 27.9038 22.8983 28.4535 22.8027C28.991 22.7203 29.5642 22.8192 29.9841 23.184C30.4891 23.6148 30.6918 24.2434 30.5059 24.8896C30.2876 25.6182 29.665 26.2479 29.0089 26.6281C28.6334 26.8438 28.2392 27.0266 27.831 27.1743C26.7896 27.537 25.6884 27.7058 24.5839 27.6721C24.3152 27.6721 24.0286 27.6721 23.7419 27.6392C23.4396 27.6062 23.1373 27.5392 22.8507 27.4732C22.386 27.3743 21.9341 27.2243 21.5037 27.026C21.0731 26.8386 20.6618 26.6112 20.2754 26.3468C19.89 26.0749 19.5299 25.7701 19.1994 25.4358C18.8707 25.0973 18.5722 24.7319 18.307 24.3434C17.399 22.9851 16.978 21.3125 17.0619 19.6894C17.1291 18.1003 17.6677 16.5102 18.644 15.2189C18.7493 15.0563 18.8713 14.9189 18.9867 14.7892C19.0371 14.7321 19.0863 14.6771 19.1322 14.6222C20.337 13.176 21.9471 12.7188 22.6111 12.5298L22.648 12.5188C23.9956 12.1432 25.4231 12.1432 26.7707 12.5188C27.0909 12.6023 28.8913 13.1485 30.2876 14.6222C30.3547 14.6881 30.5406 14.9035 30.7757 15.2189C31.373 16.0171 31.8117 16.9186 32.069 17.8761L32.0712 17.8849C32.172 18.2487 32.2727 18.7465 32.2727 19.3586ZM22.3961 16.6266C21.7317 17.1569 21.2693 17.8919 21.0838 18.7124H28.4199C28.222 17.8926 27.755 17.1594 27.0909 16.6255C26.4219 16.099 25.5925 15.8077 24.7351 15.798C23.8822 15.8064 23.0573 16.098 22.395 16.6255L22.3961 16.6266ZM50.2939 12.2375C48.3759 12.2375 46.6259 13.0826 45.3808 14.4573V14.4068C45.3558 13.8547 45.1108 13.3343 44.6986 12.9579C44.2864 12.5814 43.74 12.379 43.1771 12.3943C42.6143 12.4096 42.0801 12.6413 41.6897 13.0396C41.2993 13.4378 41.084 13.9707 41.0902 14.5233V30.4371C41.0889 30.7154 41.1436 30.9912 41.2514 31.2486C41.3591 31.506 41.5176 31.74 41.7179 31.937C41.9181 32.134 42.1561 32.2903 42.4181 32.3967C42.6801 32.503 42.9609 32.5575 43.2444 32.5569C43.5279 32.5574 43.8086 32.5028 44.0705 32.3963C44.3324 32.2899 44.5702 32.1336 44.7703 31.9366C44.9704 31.7396 45.1289 31.5057 45.2365 31.2483C45.3442 30.991 45.3989 30.7153 45.3976 30.4371V25.4687C46.6427 26.827 48.3759 27.6886 50.3107 27.6886C54.1647 27.6886 57.2941 24.2599 57.2941 19.9872C57.2773 15.7156 54.1479 12.2375 50.2939 12.2375ZM49.3523 24.2269C47.1644 24.2269 45.3808 22.3554 45.3808 20.0213C45.3808 17.6695 47.1476 15.798 49.3523 15.798C51.539 15.798 53.3227 17.6695 53.3227 20.0213C53.3059 22.3554 51.539 24.2269 49.3523 24.2269ZM13.8317 21.0972L13.1252 22.6214C12.8049 23.2829 12.4847 23.9621 12.1824 24.6412L11.8902 25.2786C10.5443 28.215 8.94877 31.7009 5.46882 32.4404C3.78595 32.8053 1.2454 32.3086 0.302634 30.7514C-0.639014 29.1788 0.757222 27.3732 2.55766 27.7875C2.84206 27.8491 3.12086 27.9853 3.40302 28.1238C3.87216 28.3546 4.34802 28.5865 4.86307 28.4832C5.35125 28.4007 5.65357 28.0524 6.04097 27.6051C6.57842 26.993 6.81467 26.3468 6.91544 25.9655L6.89081 25.9083C6.883 25.8886 6.87441 25.8692 6.86505 25.8501C6.42726 25.0479 6.04433 24.3313 5.72522 23.7324C5.54583 23.3942 5.36481 23.0568 5.18218 22.7203L4.44879 21.3532C3.91135 20.3532 3.82178 20.1883 3.5844 19.7564C3.0611 18.787 2.51114 17.8317 1.93512 16.8915C1.31258 15.864 0.673246 14.7222 1.19502 13.5122C1.39113 13.0438 1.75939 12.6647 2.22682 12.4502C2.69426 12.2357 3.22674 12.2013 3.71877 12.354C4.80149 12.6759 5.28183 13.6881 5.7297 14.6332C5.81144 14.8046 5.89094 14.9738 5.97379 15.1354C6.6971 16.5431 7.40362 17.9509 8.11013 19.3586C8.17284 19.4982 8.26689 19.6883 8.38334 19.9213C8.48635 20.1279 8.60615 20.3685 8.73267 20.6334L8.91966 21.0158C8.99244 21.1653 9.05626 21.2928 9.10329 21.395C9.43135 20.5927 9.7639 19.7938 10.0953 18.9938C10.4279 18.1948 10.7604 17.3959 11.0885 16.5926C11.0974 16.5486 11.1758 16.3772 11.2945 16.1189C11.3941 15.9002 11.5218 15.62 11.6606 15.3013L11.8028 14.9639C12.2395 13.9199 12.7657 12.6639 13.9325 12.321C14.3466 12.203 14.7878 12.2146 15.1949 12.354C15.6021 12.4934 15.9548 12.7538 16.2043 13.099C16.4562 13.4463 16.557 13.8441 16.5738 14.2419C16.5872 15.1211 16.155 16.064 15.7833 16.8728C15.6937 17.0706 15.6064 17.2596 15.5313 17.4377L15.4866 17.5344C15.3836 17.7619 15.1036 18.3773 14.6222 19.3916C14.4486 19.7542 14.2818 20.1191 14.1127 20.4872L13.8317 21.0972Z" fill="black"/>
<path d="M57.1091 45.5815H49.5982L48.7763 47.5938C48.6723 47.8395 48.5306 48.0473 48.3511 48.2174C48.1716 48.378 47.9685 48.5008 47.7417 48.5858C47.5244 48.6614 47.2883 48.6992 47.0332 48.6992C46.7781 48.6898 46.5324 48.6331 46.2962 48.5292C46.0506 48.4252 45.8475 48.2882 45.6869 48.1182C45.5263 47.9387 45.4082 47.7403 45.3326 47.523C45.2664 47.3057 45.2381 47.0789 45.2475 46.8427C45.2664 46.5971 45.3279 46.3515 45.4318 46.1058L51.6531 31.6792C51.8137 31.3202 52.0357 31.0462 52.3192 30.8572C52.612 30.6588 52.9521 30.5596 53.3395 30.5596C53.6985 30.5596 54.0245 30.6588 54.3173 30.8572C54.6197 31.0462 54.8464 31.3155 54.9976 31.665L61.2614 46.1058C61.3653 46.342 61.422 46.5829 61.4315 46.8286C61.4504 47.0648 61.4267 47.2915 61.3606 47.5088C61.2945 47.7261 61.1811 47.9245 61.0205 48.104C60.8693 48.2835 60.6756 48.4252 60.4395 48.5292C60.2033 48.6331 59.9623 48.6898 59.7167 48.6992C59.4711 48.6992 59.2349 48.6567 59.0081 48.5717C58.7814 48.4866 58.5783 48.3638 58.3987 48.2032C58.2192 48.0332 58.0728 47.83 57.9594 47.5938L57.1091 45.5815ZM51.0862 41.8969H55.5928L53.3537 36.455L51.0862 41.8969ZM63.5935 32.3169C63.5935 32.0618 63.6407 31.8209 63.7352 31.5942C63.8391 31.358 63.9761 31.1548 64.1462 30.9848C64.3163 30.8147 64.5147 30.6825 64.7414 30.588C64.9681 30.4841 65.2138 30.4321 65.4783 30.4321C65.7429 30.4321 65.9838 30.4841 66.2011 30.588C66.4278 30.6825 66.6168 30.8147 66.7679 30.9848C66.9285 31.1548 67.0514 31.358 67.1364 31.5942C67.2309 31.8209 67.2781 32.0618 67.2781 32.3169V36.1007C67.741 35.8645 68.2276 35.6803 68.7378 35.548C69.2574 35.4158 69.7959 35.3496 70.3533 35.3496C71.2887 35.3496 72.1626 35.5291 72.9751 35.8881C73.797 36.2377 74.5103 36.7195 75.115 37.3336C75.7291 37.9477 76.2109 38.6658 76.5605 39.4877C76.9195 40.3002 77.099 41.1741 77.099 42.1094C77.099 43.0353 76.9195 43.9092 76.5605 44.7312C76.2109 45.5531 75.7291 46.2712 75.115 46.8853C74.5103 47.4994 73.797 47.9859 72.9751 48.3449C72.1626 48.6945 71.2887 48.8693 70.3533 48.8693C69.6164 48.8693 68.9173 48.7606 68.2559 48.5433C67.5946 48.3166 66.9805 48.0001 66.4136 47.5938L66.3711 47.7072C66.3428 47.7733 66.3003 47.8631 66.2436 47.9765C66.1869 48.0804 66.1019 48.189 65.9885 48.3024C65.8846 48.4063 65.7523 48.5008 65.5917 48.5858C65.4405 48.6614 65.2516 48.6992 65.0248 48.6992C64.4958 48.6992 64.1226 48.5339 63.9053 48.2032C63.6974 47.8631 63.5935 47.4285 63.5935 46.8994V32.3169ZM70.3533 39.0342C69.9565 39.0342 69.5786 39.1051 69.2196 39.2468C68.87 39.3885 68.5583 39.5869 68.2843 39.842C68.0103 40.0876 67.7836 40.3805 67.6041 40.7206C67.434 41.0608 67.3301 41.4292 67.2923 41.826V42.4212C67.3301 42.8086 67.434 43.1723 67.6041 43.5124C67.7836 43.8431 68.0103 44.136 68.2843 44.3911C68.5677 44.6367 68.8842 44.8304 69.2338 44.9721C69.5833 45.1138 69.9565 45.1847 70.3533 45.1847C70.7785 45.1847 71.1753 45.1044 71.5437 44.9438C71.9217 44.7831 72.2476 44.5659 72.5216 44.2919C72.7956 44.0084 73.0129 43.6825 73.1735 43.314C73.3341 42.9361 73.4144 42.5346 73.4144 42.1094C73.4144 41.6843 73.3341 41.2875 73.1735 40.919C73.0129 40.5411 72.7956 40.2152 72.5216 39.9412C72.2476 39.6578 71.9217 39.4357 71.5437 39.2751C71.1753 39.1145 70.7785 39.0342 70.3533 39.0342ZM84.4523 46.8711C84.4523 47.1262 84.405 47.3671 84.3105 47.5938C84.2161 47.8111 84.0838 48.0048 83.9137 48.1749C83.7531 48.3355 83.5594 48.463 83.3327 48.5575C83.1154 48.652 82.8792 48.6992 82.6241 48.6992C82.369 48.6992 82.1281 48.652 81.9014 48.5575C81.6841 48.463 81.4904 48.3355 81.3203 48.1749C81.1503 48.0048 81.0133 47.8111 80.9094 47.5938C80.8149 47.3671 80.7677 47.1262 80.7677 46.8711V32.2602C80.7677 32.0051 80.8149 31.7689 80.9094 31.5516C81.0133 31.3249 81.1503 31.1312 81.3203 30.9706C81.4904 30.8006 81.6888 30.6683 81.9155 30.5738C82.1517 30.4793 82.3974 30.4321 82.6525 30.4321C82.9076 30.4321 83.1437 30.4793 83.361 30.5738C83.5783 30.6683 83.7673 30.8006 83.9279 30.9706C84.098 31.1312 84.2255 31.3249 84.3105 31.5516C84.405 31.7689 84.4523 32.0051 84.4523 32.2602V46.8711ZM91.815 43.7533C92.1079 44.2352 92.4858 44.5989 92.9488 44.8446C93.4211 45.0807 93.9408 45.1988 94.5076 45.1988C94.8855 45.1988 95.2068 45.1705 95.4713 45.1138C95.7453 45.0477 95.9862 44.9438 96.194 44.802C96.5342 44.5659 96.8554 44.4241 97.1577 44.3769C97.4695 44.3297 97.7624 44.358 98.0363 44.4619C98.2253 44.5375 98.3954 44.6462 98.5465 44.7879C98.7071 44.9201 98.8394 45.076 98.9433 45.2555C99.0473 45.435 99.1228 45.6334 99.1701 45.8507C99.2173 46.0586 99.2268 46.2712 99.1984 46.4885C99.1701 46.6963 99.0992 46.9042 98.9858 47.112C98.8725 47.3104 98.7119 47.4946 98.504 47.6647C98.3245 47.8064 98.1119 47.9529 97.8663 48.104C97.6301 48.2457 97.3514 48.3733 97.0302 48.4866C96.7184 48.6 96.3547 48.6898 95.939 48.7559C95.5233 48.8315 95.0462 48.8693 94.5076 48.8693C93.5723 48.8693 92.6937 48.6945 91.8717 48.3449C91.0498 47.9859 90.327 47.4994 89.7035 46.8853C89.0894 46.2712 88.6028 45.5579 88.2438 44.7454C87.8848 43.9234 87.7053 43.0448 87.7053 42.1094C87.7053 41.1741 87.8848 40.2955 88.2438 39.4735C88.6028 38.6516 89.0894 37.9383 89.7035 37.3336C90.327 36.7195 91.0498 36.2377 91.8717 35.8881C92.6937 35.5291 93.5723 35.3496 94.5076 35.3496C95.4241 35.3496 96.2932 35.5244 97.1152 35.874C97.9371 36.2141 98.6552 36.6865 99.2693 37.2911C99.8834 37.8958 100.37 38.6044 100.729 39.4169C101.097 40.2199 101.291 41.0844 101.31 42.0102C101.31 42.5299 101.14 42.9503 100.8 43.2715C100.469 43.5927 100.035 43.7533 99.496 43.7533H91.815ZM97.5262 40.6923C97.2711 40.1254 96.8837 39.7097 96.3641 39.4452C95.8539 39.1712 95.2587 39.0342 94.5785 39.0342C93.8983 39.0342 93.3078 39.1807 92.807 39.4735C92.3158 39.757 91.9473 40.1632 91.7017 40.6923H97.5262Z" fill="black"/>
</svg>
